<svg xmlns="http://www.w3.org/2000/svg" xmlns:xlink="http://www.w3.org/1999/xlink" id="Layer_1" x="0" y="0" version="1.1" viewBox="0 0 384 384" style="enable-background:new 0 0 384 384" xml:space="preserve"><style type="text/css">.st0{fill:#fff}</style><path d="M272,32c21.2,0,41.3,8.4,56.5,23.5S352,90.8,352,112v160c0,21.2-8.4,41.3-23.5,56.5S293.2,352,272,352H112	c-21.2,0-41.3-8.4-56.5-23.5S32,293.2,32,272V112c0-21.2,8.4-41.3,23.5-56.5S90.8,32,112,32H272 M272,0H112C50.4,0,0,50.4,0,112v160	c0,61.6,50.4,112,112,112h160c61.6,0,112-50.4,112-112V112C384,50.4,333.6,0,272,0z" class="st0"/><path d="M296,112c-13.3,0-24-10.7-24-24s10.7-24,24-24c13.2,0,24,10.7,24,24S309.2,112,296,112z M192,128	c35.3,0,64,28.7,64,64s-28.7,64-64,64s-64-28.7-64-64S156.7,128,192,128 M192,96c-53,0-96,43-96,96s43,96,96,96s96-43,96-96	S245,96,192,96z" class="st0"/></svg>