<svg xmlns="http://www.w3.org/2000/svg" id="Layer_1" viewBox="0 0 480 139"><style>.st0{fill:none}.st1{fill:#fff}.st2{font-family:Raleway;font-weight:100}</style><path d="M448.07-1l-9.62 17.24-8.36 14.96L369.93 139H-1V-1z"/><path d="M-1 139h479.92v.01H-1z" class="st0"/><text class="st1 st2" font-size="57" transform="translate(261.994 65.233)">Arc</text><text class="st1 st2" font-size="54" transform="translate(17.692 112.015)">Development</text><path d="M382.44 116.43l47.65-85.23 8.36-14.96M369.83 139l-.01.01L362 153" class="st0"/><path fill="#0b72b9" d="M438.76 15.76l-56.42 100.91c-12.52-10.83-20.45-26.82-20.45-44.67 0-32.58 26.42-59 59-59 6.23 0 12.24.97 17.87 2.76z"/><path d="M479.89 72c0 32.58-26.42 59-59 59-14.73 0-28.21-5.4-38.55-14.33l56.42-100.91c23.85 7.57 41.13 29.89 41.13 56.24z"/><g id="Group_186" transform="translate(30.153 11.413)"><g id="Group_185"><g id="Words"><path id="Path_59" d="M405.05 14.4l-.09 80.38-7.67-.01.06-52.25-29.4 52.21-7.94-.01 45.04-80.32z" class="st1"/></g></g></g><path d="M457-17l-8.93 16-9.62 17.24-8.36 14.96L369.93 139l-.01.01L361 155" class="st0"/></svg>